<?xml version="1.0" standalone="no"?><!DOCTYPE svg PUBLIC "-//W3C//DTD SVG 1.1//EN" "http://www.w3.org/Graphics/SVG/1.1/DTD/svg11.dtd"><svg t="1751599407351" class="icon" viewBox="0 0 1024 1024" version="1.1" xmlns="http://www.w3.org/2000/svg" p-id="4592" xmlns:xlink="http://www.w3.org/1999/xlink" width="200" height="200"><path d="M512 46.545455L8.843636 400.756364c-6.749091 24.855273-6.749091 41.797818 0 50.827636 6.842182 9.029818 22.667636 14.522182 47.616 16.477091L512 138.519273l448.279273 329.541818c23.738182-1.954909 40.261818-7.447273 49.710545-16.477091 9.448727-9.029818 9.448727-25.972364 0-50.781091L512 46.545455z" fill="#666666" p-id="4593"></path><path d="M787.083636 898.746182h-135.261091v-293.888H341.178182v293.888H234.961455c-28.020364 0-48.407273-22.295273-48.407273-50.874182v-327.307636c-6.516364-19.874909-18.385455-29.789091-35.514182-29.789091s-30.859636 9.914182-41.146182 29.789091l0.930909 369.477818c0 55.109818 41.285818 87.412364 95.790546 87.412363h609.512727c53.992727 0 103.610182-32.302545 103.610182-87.412363l-0.930909-369.477818c-9.076364-19.874909-22.388364-29.789091-39.889455-29.789091s-31.092364 9.914182-40.773818 29.789091l0.930909 327.307636c0 28.578909-23.924364 50.874182-51.944727 50.874182z m-367.988363-211.781818h159.325091v211.688727H419.095273v-211.735273z" fill="#666666" p-id="4594"></path></svg>