<?xml version="1.0" encoding="UTF-8" standalone="no"?>
<svg 
  version="1.1" 
  xmlns="http://www.w3.org/2000/svg" 
  xmlns:xlink="http://www.w3.org/1999/xlink" 
  xmlns:svg="http://www.w3.org/2000/svg"
  xmlns:rdf="http://www.w3.org/1999/02/22-rdf-syntax-ns#"
  xmlns:cc="http://creativecommons.org/ns#"
  xmlns:dc="http://purl.org/dc/elements/1.1/"
  viewBox="0 0 768 768"
  width="768"
  height="768"
>
<style>svg {background-color: white; }</style>"
<metadata id="metadata1">
Created by https://svgstud.io and licensed under CC-BY-SA 4.0 license. Please attribute https://svgstud.io
</metadata>
<metadata id="prompt">
alarm clock
</metadata>
<metadata id="version">
7
</metadata>
<metadata id="metadata2">
<rdf:RDF>
<cc:Work
    rdf:about="">
    <cc:license
    rdf:resource="http://creativecommons.org/licenses/by-sa/4.0/" />
    <dc:creator>
        <cc:Agent>
            <dc:title>https://svgstud.io</dc:title>
        </cc:Agent>
    </dc:creator>
</cc:Work>
<cc:License
    rdf:about="http://creativecommons.org/licenses/by-sa/4.0/">
    <cc:permits
    rdf:resource="http://creativecommons.org/ns#Reproduction" />
    <cc:permits
    rdf:resource="http://creativecommons.org/ns#Distribution" />
    <cc:requires
    rdf:resource="http://creativecommons.org/ns#Notice" />
    <cc:requires
    rdf:resource="http://creativecommons.org/ns#Attribution" />
    <cc:permits
    rdf:resource="http://creativecommons.org/ns#DerivativeWorks" />
    <cc:requires
    rdf:resource="http://creativecommons.org/ns#ShareAlike" />
</cc:License>
</rdf:RDF>
</metadata>
<metadata id="uid">
3ad8e7f16d04f051ab80dbdaabaa2ba99f2860261c14bc68e57b19f34c3ad3a8
</metadata>
<path stroke="none" fill="black" fill-rule="evenodd" d="M413.5,694.8C391.5,694.7 366.8,694.5 358.5,694.3C350.2,694.2 332.7,693.6 319.5,693.0C306.3,692.4 283.6,691.0 269.0,689.9C254.4,688.8 236.7,687.3 229.5,686.5C222.3,685.6 214.1,684.3 211.2,683.4C207.2,682.3 206.0,681.5 206.2,680.2C206.4,679.3 207.6,678.0 209.0,677.3C210.4,676.7 215.1,675.4 219.5,674.5C223.9,673.5 230.8,672.7 234.8,672.6C242.2,672.5 242.2,672.5 246.0,664.5C248.1,660.1 254.1,647.2 259.4,635.8C264.7,624.4 269.0,614.6 269.0,614.1C269.0,613.6 266.4,611.3 263.2,608.9C260.1,606.5 254.1,601.2 250.0,597.0C245.8,592.9 238.9,585.1 234.7,579.8C230.5,574.5 224.4,565.9 221.3,560.8C218.2,555.7 213.7,547.2 211.2,542.0C208.8,536.8 204.9,526.8 202.5,519.9C200.1,513.0 197.3,502.7 196.1,496.9C194.9,491.2 193.5,480.7 192.9,473.7C192.1,464.6 192.1,456.9 192.9,447.2C193.4,439.7 194.9,428.8 196.0,423.1C197.2,417.3 199.5,408.3 201.2,403.1C202.8,397.8 206.0,389.2 208.2,384.0C210.4,378.8 214.0,371.4 216.3,367.5C218.5,363.6 223.1,356.4 226.6,351.5C230.0,346.6 236.5,338.3 240.9,333.3C245.4,328.2 253.2,320.4 258.3,316.0C263.3,311.5 272.3,304.6 278.2,300.7C284.1,296.7 289.1,293.0 289.4,292.3C289.7,291.7 288.1,287.5 286.0,283.1C283.8,278.6 281.4,274.7 280.7,274.4C280.0,274.2 275.9,275.3 271.8,276.9C267.6,278.6 259.7,281.1 254.2,282.4C248.7,283.7 240.1,285.2 235.0,285.6C226.9,286.2 225.7,286.1 223.8,284.4C222.7,283.3 220.8,280.5 219.8,278.1C218.6,275.6 217.6,270.5 217.3,266.1C216.9,259.9 217.2,257.1 219.2,250.9C220.6,246.7 223.4,240.6 225.6,237.4C227.7,234.2 232.2,228.7 235.6,225.4C239.0,222.0 245.0,217.0 249.1,214.3C253.2,211.5 258.1,208.5 260.0,207.5C261.9,206.6 264.3,205.1 265.3,204.2C266.9,202.8 266.9,202.5 264.4,198.3C263.0,195.8 261.4,192.5 261.0,190.9C260.5,189.3 260.5,186.6 261.0,184.8C261.5,183.1 262.9,180.6 264.2,179.3C265.4,178.0 268.5,176.3 271.1,175.5C274.5,174.5 276.9,174.4 279.3,175.1C281.1,175.6 283.6,177.0 284.8,178.3C286.0,179.5 287.3,182.4 287.8,184.5C288.4,187.4 289.1,188.6 290.6,188.8C291.7,189.0 294.6,187.5 297.2,185.6C300.9,182.7 303.0,179.8 308.5,168.9C312.3,161.7 317.7,152.7 320.6,149.1C323.5,145.5 327.9,140.9 330.3,138.9C332.7,136.9 337.1,133.6 340.2,131.7C343.3,129.7 349.6,126.5 354.2,124.6C358.8,122.7 367.1,120.2 372.7,119.1C379.6,117.7 386.6,117.0 394.7,117.0C401.2,117.0 410.6,117.7 415.6,118.5C420.5,119.3 428.2,121.1 432.6,122.6C436.9,124.1 442.8,126.4 445.5,127.7C448.2,129.1 453.5,132.2 457.2,134.6C460.8,137.1 467.1,142.6 471.2,146.9C475.2,151.1 480.1,157.5 482.0,160.9C483.9,164.3 487.4,170.4 489.8,174.5C492.6,179.4 495.4,182.9 497.9,184.5C500.0,185.9 503.4,187.3 505.4,187.7C507.7,188.1 509.0,187.9 509.0,187.1C509.0,186.5 506.4,183.4 503.2,180.2C500.0,176.9 495.4,170.7 492.7,165.8C490.1,161.1 485.7,154.0 482.9,150.1C480.1,146.1 474.4,140.0 470.0,136.2C465.6,132.5 458.3,127.4 453.8,124.8C449.2,122.1 446.0,120.0 446.6,120.0C447.2,120.0 450.4,121.2 453.6,122.6C456.7,124.0 462.5,127.2 466.4,129.7C470.2,132.2 476.3,137.0 479.8,140.3C483.3,143.7 488.1,149.6 490.5,153.5C492.9,157.4 496.3,163.6 498.1,167.5C499.8,171.3 503.1,176.8 505.3,179.7C507.6,182.6 510.0,185.0 510.7,185.0C511.3,185.0 512.8,183.4 514.0,181.5C515.2,179.6 517.3,177.1 518.7,176.0C520.4,174.7 522.8,174.0 525.7,174.0C528.1,174.0 531.8,174.9 534.0,176.0C536.2,177.1 538.7,179.4 539.6,181.1C540.6,183.1 541.0,185.4 540.6,187.4C540.3,189.1 538.8,192.9 537.5,195.9C536.1,198.9 535.1,201.8 535.3,202.4C535.6,203.0 539.8,205.9 544.8,208.9C549.8,211.8 557.0,217.1 560.9,220.6C564.7,224.2 570.2,230.5 572.9,234.6C575.7,238.7 578.9,245.0 580.0,248.6C581.3,252.9 582.0,258.0 582.0,263.1C582.0,267.6 581.4,272.5 580.6,274.3C579.9,276.1 578.0,278.7 576.4,280.1C574.8,281.6 572.0,283.0 570.1,283.4C568.3,283.7 562.8,283.5 557.9,283.0C553.1,282.4 544.3,280.4 538.5,278.5C532.6,276.6 524.7,273.4 520.8,271.4C515.0,268.3 513.7,267.9 512.9,269.1C512.3,269.9 509.7,274.9 507.0,280.3C504.3,285.7 502.3,290.7 502.6,291.5C502.9,292.2 506.4,294.9 510.3,297.5C514.3,300.2 521.1,305.1 525.5,308.6C529.9,312.0 537.8,319.3 543.1,324.7C548.4,330.1 555.3,337.6 558.5,341.5C561.7,345.4 567.0,352.6 570.3,357.5C573.5,362.4 578.8,371.9 582.0,378.5C585.2,385.1 589.6,396.1 591.8,403.0C594.0,409.9 596.5,419.2 597.4,423.5C598.3,427.9 599.4,435.6 600.0,440.5C600.5,445.4 601.0,454.4 601.0,460.5C600.9,466.6 600.3,476.7 599.6,483.0C598.8,489.3 597.0,499.0 595.6,504.5C594.2,510.0 591.3,519.2 589.2,525.0C587.0,530.8 583.9,538.4 582.3,542.0C580.7,545.6 576.6,553.1 573.2,558.7C569.9,564.4 564.1,572.9 560.4,577.6C556.7,582.4 549.8,590.2 545.1,595.0C540.4,599.7 532.9,606.8 528.5,610.7C520.6,617.7 520.6,617.7 527.7,632.6C531.6,640.8 536.7,651.9 539.0,657.3C541.3,662.6 544.1,668.2 545.2,669.6C546.7,671.4 547.9,672.0 549.3,671.6C550.5,671.3 557.5,671.5 564.9,672.1C572.4,672.6 582.1,673.5 586.5,674.0C590.9,674.6 596.8,675.5 599.5,676.1C602.2,676.7 605.7,677.6 607.2,678.2C608.8,678.8 610.0,679.8 610.0,680.5C610.0,681.2 608.2,682.5 606.1,683.3C604.0,684.2 598.2,685.6 593.4,686.4C588.5,687.3 577.5,688.6 569.0,689.4C560.5,690.2 543.4,691.4 531.0,692.0C518.6,692.5 496.1,693.5 481.0,694.0C465.9,694.5 435.5,694.9 413.5,694.8zM252.5,678.7C254.0,678.5 256.4,674.9 261.8,664.5C265.8,656.8 272.5,644.7 276.6,637.7C280.8,630.6 283.9,624.2 283.6,623.5C283.3,622.7 281.3,620.9 279.0,619.4C276.8,617.9 274.8,616.9 274.6,617.1C274.4,617.3 270.7,625.1 266.3,634.5C261.8,643.9 255.9,656.7 253.1,663.1C250.3,669.5 248.0,675.4 248.0,676.3C248.0,677.1 248.6,678.1 249.2,678.4C249.9,678.6 251.4,678.8 252.5,678.7zM531.5,678.0C533.5,678.0 535.0,677.5 535.0,676.8C535.0,676.2 531.7,669.3 527.6,661.6C523.5,653.8 518.0,643.5 515.3,638.5C512.6,633.5 509.7,629.4 508.9,629.2C508.1,629.1 506.0,630.2 504.1,631.8C500.7,634.6 500.7,634.6 508.8,647.7C513.2,654.9 519.4,664.6 522.4,669.4C527.7,677.5 528.2,678.0 531.5,678.0zM272.8,675.6C274.3,675.4 277.1,674.9 279.0,674.6C280.9,674.3 295.6,673.4 311.5,672.6C327.4,671.8 354.8,670.8 372.2,670.4C395.2,669.9 404.0,669.4 404.0,668.6C404.0,668.0 403.3,666.5 402.5,665.4C401.3,663.6 399.6,663.2 390.8,662.6C385.1,662.3 375.0,661.0 368.2,659.9C361.4,658.8 350.3,656.3 343.4,654.5C336.6,652.6 327.1,649.4 322.3,647.5C317.5,645.5 309.7,641.9 305.1,639.4C300.6,637.0 296.4,635.3 295.8,635.6C295.3,635.9 291.4,641.5 287.3,647.9C283.1,654.3 277.5,663.0 274.9,667.2C272.2,671.5 270.0,675.2 270.0,675.6C270.0,675.9 271.2,675.9 272.8,675.6zM515.3,673.9C517.1,674.0 517.1,673.9 515.3,671.0C514.3,669.4 509.0,661.5 503.6,653.4C498.1,645.4 493.1,638.6 492.3,638.3C491.6,638.0 487.7,639.4 483.7,641.3C479.8,643.3 472.4,646.5 467.3,648.4C462.2,650.3 456.2,652.4 453.8,653.0C451.4,653.7 448.7,654.9 447.8,655.7C446.8,656.6 444.9,659.2 443.5,661.6C442.1,663.9 441.0,666.5 441.0,667.3C441.0,668.4 444.7,668.8 460.8,669.3C471.6,669.7 486.6,670.5 494.0,671.1C501.4,671.7 508.9,672.5 510.5,673.0C512.1,673.4 514.3,673.9 515.3,673.9zM399.5,633.4C407.2,633.2 416.6,632.5 420.5,632.0C424.4,631.4 434.0,629.4 441.9,627.4C449.9,625.4 459.7,622.5 463.7,620.9C467.7,619.3 474.3,616.4 478.2,614.4C482.1,612.4 489.2,608.4 493.9,605.5C498.6,602.6 506.8,596.6 512.1,592.2C517.4,587.8 525.0,580.5 528.9,575.9C532.9,571.3 538.8,563.6 542.0,558.8C545.2,554.0 550.5,544.6 553.8,537.8C557.1,531.0 561.4,520.3 563.4,514.0C565.4,507.7 568.0,497.3 569.3,491.0C571.1,481.4 571.4,476.0 571.4,458.5C571.4,442.5 571.0,435.1 569.6,427.6C568.6,422.2 566.7,414.1 565.4,409.6C564.1,405.1 561.4,397.4 559.5,392.4C557.5,387.4 553.9,379.3 551.4,374.4C548.9,369.5 544.0,361.2 540.5,356.0C537.0,350.8 530.5,342.4 526.1,337.4C521.7,332.3 513.3,324.4 507.4,319.6C501.4,314.8 491.6,307.9 485.5,304.1C479.5,300.4 471.7,295.8 468.2,294.0C464.8,292.2 462.2,290.5 462.4,290.2C462.7,290.0 465.7,290.7 469.2,291.9C472.7,293.1 480.0,296.6 485.5,299.8C491.0,303.0 497.4,306.8 499.7,308.3C502.0,309.7 508.5,314.7 514.2,319.2C519.8,323.8 528.0,331.1 532.3,335.4C536.6,339.7 543.4,347.9 547.4,353.6C551.4,359.2 556.8,367.9 559.3,372.8C561.8,377.7 565.3,385.2 567.0,389.6C568.7,393.9 571.2,401.8 572.6,407.0C574.0,412.2 575.7,422.6 576.5,430.0C577.3,437.4 578.0,450.2 578.0,458.5C578.0,466.8 577.3,479.5 576.4,486.9C575.6,494.2 573.8,504.5 572.4,509.9C571.0,515.2 567.1,526.5 563.7,535.0C560.3,543.5 557.4,550.9 557.2,551.5C557.0,552.0 558.0,551.1 559.5,549.5C560.9,547.9 564.5,541.7 567.5,535.8C570.5,529.9 574.4,521.0 576.0,515.9C577.7,510.8 580.2,501.2 581.5,494.6C582.8,487.9 584.4,476.1 585.0,468.3C585.8,458.1 585.8,450.4 585.0,441.3C584.4,434.3 583.0,424.1 581.9,418.7C580.8,413.3 578.1,403.4 575.9,396.7C573.7,390.0 569.5,379.4 566.5,373.1C563.5,366.9 559.4,359.0 557.3,355.6C555.3,352.3 550.7,345.7 547.1,341.0C543.5,336.3 537.4,329.3 533.5,325.5C529.7,321.6 523.4,316.0 519.5,312.9C515.6,309.9 509.6,305.4 506.0,302.9C502.4,300.4 495.9,296.3 491.5,293.7C487.1,291.2 480.1,287.5 476.0,285.6C471.9,283.8 463.8,280.6 458.0,278.6C452.2,276.7 441.9,273.9 435.0,272.5C425.1,270.4 418.5,269.7 403.4,269.3C391.6,268.9 379.9,269.2 372.9,269.9C366.6,270.6 357.7,272.0 353.0,273.1C348.3,274.2 339.6,276.7 333.6,278.7C327.6,280.6 317.1,285.1 310.4,288.5C303.6,291.9 292.8,298.2 286.4,302.5C280.0,306.7 270.9,313.5 266.2,317.4C261.4,321.4 254.2,328.2 250.1,332.5C246.1,336.9 240.8,343.0 238.5,346.0C236.1,349.1 231.3,356.1 227.9,361.6C224.5,367.0 219.7,375.7 217.2,380.8C214.8,385.9 211.3,394.6 209.4,400.3C207.5,405.9 204.8,416.5 203.5,423.9C202.1,431.3 200.7,442.5 200.4,448.9C200.0,455.3 200.3,465.7 200.9,472.0C201.5,478.3 203.0,488.2 204.1,494.0C205.3,499.8 207.6,508.6 209.2,513.5C210.8,518.5 214.8,528.0 218.0,534.8C221.3,541.5 226.4,550.8 229.3,555.3C232.3,559.8 235.7,564.5 236.9,565.8C238.1,567.0 239.3,568.0 239.5,568.0C239.7,568.0 238.1,564.1 235.9,559.4C233.7,554.6 232.0,550.1 232.2,549.3C232.4,548.6 236.1,552.6 240.5,558.2C244.9,563.9 252.8,572.8 258.0,578.1C263.3,583.4 271.8,590.8 277.0,594.6C282.2,598.4 289.4,603.4 293.0,605.7C296.6,607.9 302.8,611.4 306.8,613.4C310.7,615.4 317.4,618.4 321.5,620.0C325.7,621.7 333.9,624.3 339.8,626.0C345.7,627.6 354.5,629.6 359.4,630.5C364.4,631.5 372.2,632.6 376.9,633.0C381.7,633.5 391.8,633.7 399.5,633.4zM393.6,623.9C387.5,623.8 378.7,623.4 374.0,622.9C369.3,622.4 360.8,621.1 355.0,620.0C349.2,618.8 339.1,616.1 332.5,613.9C325.9,611.6 317.1,608.1 313.0,606.1C308.9,604.0 301.0,599.4 295.5,595.9C290.0,592.3 281.4,586.0 276.5,581.8C271.6,577.6 264.7,571.3 261.3,567.8C257.9,564.4 251.4,556.5 246.8,550.3C242.2,544.2 236.3,535.3 233.7,530.6C231.0,525.9 227.3,518.6 225.5,514.3C223.6,510.0 221.0,502.7 219.7,498.0C218.3,493.3 216.4,484.8 215.5,479.2C214.1,471.1 213.9,465.0 214.2,450.2C214.6,436.0 215.3,429.0 217.0,421.1C218.2,415.3 220.8,406.1 222.7,400.6C224.6,395.0 228.1,386.4 230.6,381.3C233.0,376.2 238.6,366.8 242.9,360.2C247.3,353.7 254.9,344.1 260.0,338.7C265.0,333.4 273.0,326.0 277.8,322.2C282.6,318.4 289.2,313.5 292.5,311.3C295.8,309.1 302.4,305.2 307.1,302.6C311.8,300.1 320.1,296.2 325.6,294.0C331.0,291.7 339.0,289.0 343.3,287.9C347.6,286.8 355.4,285.3 360.8,284.5C366.4,283.6 377.6,283.0 387.5,283.0C396.9,283.0 409.0,283.7 414.7,284.5C420.3,285.3 429.5,287.1 435.2,288.5C440.8,290.0 449.5,292.7 454.5,294.6C459.4,296.5 466.9,299.9 471.0,302.2C475.1,304.5 481.2,308.1 484.5,310.3C487.8,312.5 493.6,316.9 497.5,320.1C501.4,323.2 506.8,328.2 509.6,331.2C512.4,334.1 516.6,338.9 518.9,341.9C521.2,344.9 523.8,348.6 524.6,350.3C525.5,351.9 526.0,353.4 525.7,353.6C525.5,353.8 522.2,351.0 518.4,347.4C514.6,343.7 507.0,337.1 501.5,332.7C496.0,328.3 487.8,322.3 483.3,319.3C478.8,316.4 471.6,312.2 467.3,310.0C463.0,307.8 454.8,304.4 449.0,302.6C443.2,300.7 431.5,297.7 423.0,296.0C407.8,292.9 407.1,292.8 386.0,293.2C368.7,293.6 362.7,294.1 355.4,295.8C350.4,297.0 342.5,299.1 337.9,300.6C333.3,302.0 326.4,304.7 322.5,306.4C318.6,308.2 311.0,312.3 305.5,315.5C300.0,318.7 292.1,323.8 288.0,326.9C283.9,329.9 275.8,337.1 270.0,342.9C264.2,348.7 256.8,357.3 253.5,362.0C250.2,366.6 245.8,373.3 243.8,376.8C241.7,380.2 238.5,386.6 236.6,390.8C234.7,395.1 232.0,402.3 230.6,406.8C229.2,411.3 227.1,419.6 225.9,425.2C224.8,430.9 223.6,440.4 223.3,446.5C223.0,452.6 223.3,462.3 223.9,468.2C224.5,474.0 225.7,482.4 226.5,486.7C227.4,491.0 229.7,499.1 231.6,504.8C233.5,510.5 237.0,519.1 239.4,524.0C241.8,528.8 246.8,537.1 250.4,542.3C254.0,547.5 260.1,555.2 263.9,559.4C267.8,563.6 273.9,569.8 277.6,573.1C281.3,576.5 287.7,581.8 291.9,584.9C296.1,588.0 304.0,593.1 309.5,596.2C315.0,599.3 323.6,603.4 328.6,605.4C333.5,607.3 341.9,610.1 347.1,611.4C352.2,612.8 361.0,614.7 366.5,615.6C373.3,616.8 382.1,617.3 394.0,617.3C403.6,617.3 415.3,616.8 420.0,616.1C424.7,615.4 433.6,613.5 439.8,611.9C446.1,610.3 455.4,607.3 460.5,605.2C465.6,603.0 474.1,598.9 479.3,596.0C484.6,593.1 493.6,587.2 499.5,582.8C505.4,578.4 515.8,569.3 522.7,562.6C529.7,556.0 534.7,551.6 534.0,553.0C533.3,554.4 531.3,557.5 529.6,560.0C528.0,562.5 522.3,568.9 517.0,574.4C511.8,579.8 503.1,587.6 497.6,591.7C491.4,596.4 482.9,601.5 474.6,605.5C467.4,609.0 456.8,613.4 451.0,615.3C445.2,617.3 437.1,619.5 433.0,620.4C428.9,621.2 420.8,622.4 415.1,622.9C409.4,623.5 399.8,623.9 393.6,623.9zM392.5,612.0C390.1,612.0 388.8,611.4 388.0,610.1C387.5,609.0 387.0,607.1 387.0,605.8C387.0,604.5 387.7,602.4 388.6,601.2C389.4,600.0 390.9,599.0 391.9,599.0C392.9,599.0 394.2,599.6 394.8,600.3C395.4,600.9 396.1,602.7 396.5,604.3C396.9,605.8 396.9,608.1 396.6,609.5C396.1,611.6 395.4,612.0 392.5,612.0zM393.5,597.5C390.5,597.9 388.6,597.5 385.9,595.9C384.0,594.8 381.8,592.8 381.0,591.7C380.3,590.5 379.5,586.1 379.2,581.9C378.9,576.1 379.2,573.5 380.5,570.6C381.5,568.6 383.6,566.0 385.3,564.8C387.3,563.3 390.3,562.5 394.2,562.2C398.4,561.9 400.7,562.2 402.5,563.4C403.9,564.3 405.0,565.9 405.0,566.9C405.0,567.9 404.3,569.1 403.4,569.4C402.5,569.7 400.1,569.5 398.1,568.9C395.0,568.0 393.8,568.1 391.2,569.4C389.3,570.4 388.0,571.8 388.0,572.9C388.0,574.6 388.7,574.8 393.8,574.7C397.8,574.6 400.4,575.0 402.2,576.2C403.8,577.3 405.4,579.6 406.1,582.0C407.1,585.2 407.0,586.7 405.9,589.7C404.9,592.3 403.4,594.0 401.0,595.2C399.1,596.1 395.7,597.2 393.5,597.5zM317.3,593.3C316.8,593.5 315.3,593.3 313.8,592.8C311.6,592.0 311.0,591.2 311.0,589.0C311.0,587.4 312.1,584.8 313.6,583.0C315.6,580.7 317.0,580.0 318.9,580.2C320.7,580.4 321.6,581.2 321.8,582.7C322.0,583.9 321.2,586.7 320.1,588.9C318.9,591.1 317.7,593.1 317.3,593.3zM470.8,594.0C469.8,594.0 468.1,592.5 467.0,590.8C465.9,589.0 465.0,586.6 465.0,585.5C465.0,584.3 465.5,582.9 466.2,582.2C466.9,581.5 468.2,581.0 469.1,581.0C470.1,581.0 471.8,582.2 472.9,583.7C474.1,585.1 475.3,587.4 475.7,588.8C476.1,590.6 475.8,591.7 474.5,592.7C473.4,593.4 471.8,594.0 470.8,594.0zM393.3,590.0C394.6,590.0 396.1,589.5 396.8,588.8C397.5,588.1 398.0,586.2 398.0,584.4C398.0,582.4 397.4,581.0 396.4,580.6C395.5,580.3 393.7,580.0 392.4,580.0C390.8,580.0 389.6,580.8 388.8,582.5C387.9,584.4 388.0,585.4 389.4,587.5C390.4,588.9 392.0,590.0 393.3,590.0zM459.3,580.0C456.7,579.9 453.3,579.3 451.9,578.5C450.4,577.7 449.0,575.9 448.8,574.5C448.4,572.7 448.8,571.6 450.1,570.9C451.5,570.2 452.9,570.5 455.9,572.2C459.2,574.1 460.2,574.2 462.4,573.2C463.8,572.6 465.2,570.9 465.6,569.5C466.0,568.0 465.7,566.3 464.9,565.4C463.8,564.1 462.4,563.9 457.4,564.5C451.7,565.1 451.0,565.0 450.0,563.1C449.4,561.9 449.0,557.8 449.2,553.7C449.5,546.5 449.5,546.5 459.6,546.2C467.9,546.0 470.1,546.2 471.4,547.5C472.6,548.8 472.7,549.6 472.0,551.1C471.1,552.7 469.8,553.0 463.9,553.0C456.9,553.0 456.9,553.0 457.2,555.8C457.5,558.4 457.7,558.5 463.3,558.5C468.7,558.5 469.4,558.8 472.1,561.8C474.1,564.0 475.0,566.1 475.0,568.4C475.0,570.3 474.1,572.9 472.8,574.5C471.6,576.0 469.2,577.9 467.4,578.6C465.5,579.4 461.9,580.0 459.3,580.0zM325.2,578.0C323.7,578.0 321.9,577.6 321.2,577.1C320.1,576.4 320.1,575.6 321.5,572.5C322.3,570.4 324.8,565.8 327.0,562.3C329.2,558.9 331.0,555.4 331.0,554.6C331.0,553.4 329.4,553.0 324.4,552.8C319.3,552.6 317.4,552.1 316.6,550.8C315.8,549.5 315.8,548.5 316.6,547.2C317.5,545.8 319.5,545.5 328.6,545.2C336.4,545.0 340.0,545.3 341.3,546.2C343.0,547.4 342.6,548.6 335.5,562.8C328.5,576.9 327.7,578.0 325.2,578.0zM255.2,538.0C254.7,538.0 253.4,537.0 252.2,535.7C251.0,534.4 250.0,532.6 250.0,531.6C250.0,530.5 252.2,528.9 256.6,526.8C263.0,523.8 263.3,523.8 264.6,525.5C265.4,526.5 266.0,528.4 266.0,529.5C266.0,530.7 265.2,532.4 264.2,533.2C263.3,534.1 261.1,535.5 259.3,536.4C257.5,537.3 255.7,538.0 255.2,538.0zM537.7,536.0C536.4,536.0 533.4,534.6 531.2,533.0C528.9,531.3 527.0,529.5 527.0,528.9C527.0,528.3 527.5,527.0 528.0,525.9C528.6,524.9 530.0,524.0 531.1,524.0C532.2,524.0 534.9,524.9 537.1,526.0C539.3,527.2 541.4,528.8 541.7,529.6C542.0,530.4 541.8,532.2 541.2,533.6C540.4,535.1 539.2,536.0 537.7,536.0zM284.3,532.0C281.7,531.9 278.1,531.3 276.4,530.6C274.7,529.8 272.5,528.2 271.6,526.9C270.7,525.6 270.0,523.4 270.0,522.0C270.0,520.6 270.9,518.2 271.9,516.6C273.7,513.9 273.8,513.3 272.4,510.1C271.3,507.4 271.2,505.9 272.1,503.3C272.7,501.3 274.3,499.4 276.0,498.5C277.8,497.6 281.7,497.0 285.8,497.0C291.7,497.0 293.1,497.3 295.4,499.5C297.1,501.1 298.0,502.9 298.0,505.0C298.0,506.7 297.3,509.1 296.4,510.4C295.0,512.6 295.1,513.1 296.9,516.6C298.1,518.7 299.0,521.1 299.0,521.8C299.0,522.5 298.3,524.5 297.4,526.1C296.6,527.8 294.4,529.8 292.5,530.6C290.6,531.4 286.9,532.0 284.3,532.0zM514.8,530.0C513.8,530.0 512.4,528.7 511.5,527.0C510.1,524.2 509.6,524.1 502.7,523.8C495.5,523.5 495.5,523.5 495.2,520.0C495.0,517.3 495.8,515.1 498.8,510.5C500.9,507.2 504.1,502.8 505.9,500.7C508.6,497.7 509.9,497.0 513.0,497.0C515.5,497.0 517.0,497.5 517.4,498.6C517.7,499.5 518.0,503.9 518.0,508.5C518.0,516.8 518.0,516.8 521.0,517.4C523.5,517.9 524.0,518.4 524.0,520.9C524.0,523.1 523.0,524.6 520.3,526.9C518.2,528.6 515.8,530.0 514.8,530.0zM284.0,526.0C284.9,526.0 286.4,525.4 287.4,524.7C288.6,523.8 289.1,522.4 288.8,520.5C288.6,518.3 287.8,517.3 285.7,516.6C283.8,515.9 282.3,515.9 281.2,516.6C280.3,517.2 279.3,519.0 279.2,520.6C278.9,522.4 279.4,523.8 280.6,524.7C281.6,525.4 283.1,526.0 284.0,526.0zM507.1,518.0C507.9,518.0 509.1,517.5 509.8,516.8C510.5,516.1 511.0,513.6 511.0,511.2C511.0,508.2 510.6,507.0 509.8,507.2C509.1,507.5 507.2,509.6 505.5,511.9C503.0,515.4 502.8,516.3 504.0,517.0C504.8,517.5 506.2,518.0 507.1,518.0zM285.0,509.8C288.1,509.5 288.5,509.2 288.8,506.3C289.1,503.6 288.7,503.0 286.7,502.4C285.3,502.1 283.2,502.3 282.1,503.0C280.9,503.6 280.0,505.1 280.0,506.4C280.0,507.6 280.3,509.0 280.7,509.4C281.1,509.8 283.0,510.0 285.0,509.8zM409.0,488.7C407.9,489.0 406.0,486.5 403.2,481.1C400.9,476.8 398.3,472.9 397.4,472.6C396.5,472.3 394.4,472.0 392.6,472.0C390.8,472.0 387.4,470.8 384.8,469.1C381.8,467.2 379.6,464.7 378.1,461.8C377.0,459.4 376.0,456.2 376.0,454.7C376.0,453.3 376.4,451.1 376.9,449.7C377.4,448.4 380.0,444.4 382.8,440.8C386.9,435.4 387.4,434.1 386.2,433.4C385.4,432.8 384.4,430.2 384.1,427.5C383.7,424.7 383.8,415.3 384.2,406.5C384.5,397.7 385.3,383.5 385.9,375.0C386.6,366.5 387.5,355.0 388.1,349.5C388.8,342.9 389.8,338.4 391.1,336.4C392.2,334.6 395.0,331.6 397.5,329.6C399.9,327.6 402.6,325.2 403.5,324.4C404.3,323.5 405.0,322.2 405.0,321.4C405.0,320.7 403.9,319.8 402.6,319.4C401.1,319.1 398.7,319.6 396.2,320.9C393.9,322.1 391.4,323.0 390.5,323.0C389.2,323.0 389.0,322.1 389.2,318.2C389.5,313.5 389.5,313.5 395.2,312.6C398.4,312.2 402.6,312.1 404.6,312.5C406.6,312.8 409.3,314.2 410.6,315.5C412.2,317.1 413.0,319.1 413.0,321.4C413.0,324.3 412.0,326.0 407.0,331.4C403.2,335.4 401.3,338.1 402.0,338.5C402.6,338.9 405.1,338.9 407.5,338.6C411.2,338.0 412.0,338.2 412.9,339.9C413.5,341.0 413.7,342.6 413.4,343.4C412.9,344.7 411.1,345.0 404.6,345.0C400.2,345.0 395.9,345.4 395.1,345.9C394.0,346.6 394.2,351.8 396.4,378.6C397.8,396.2 399.0,415.8 399.0,422.2C399.0,433.6 399.0,433.9 401.7,436.0C404.4,438.1 404.4,438.1 407.9,434.6C409.9,432.8 416.9,427.2 423.5,422.3C430.1,417.4 441.8,409.1 449.5,403.9C457.2,398.6 468.3,391.3 474.2,387.7C480.0,384.0 485.5,381.0 486.4,381.0C487.3,381.0 488.0,381.8 488.0,382.9C488.0,384.1 485.2,387.1 480.8,390.8C476.8,394.0 468.8,400.0 463.0,404.1C457.2,408.3 447.3,415.3 441.0,419.7C434.7,424.1 426.1,430.1 422.0,433.1C417.8,436.1 413.4,439.2 412.0,440.1C409.6,441.7 409.6,441.7 411.9,446.9C413.6,451.0 414.0,453.2 413.5,456.2C413.0,458.9 411.5,461.7 408.9,464.5C406.7,466.8 405.0,469.5 405.0,470.4C405.0,471.2 406.1,474.8 407.4,478.2C408.8,481.7 410.0,485.4 410.2,486.5C410.4,487.6 409.9,488.6 409.0,488.7zM260.5,467.2C258.3,467.4 255.0,467.4 253.3,467.2C251.4,467.0 249.6,466.1 249.0,465.0C248.5,464.0 248.3,462.4 248.6,461.6C249.1,460.4 250.7,460.0 254.9,460.0C258.1,460.0 261.4,459.4 262.5,458.6C263.6,457.8 264.1,456.7 263.7,455.6C263.2,454.4 262.3,454.1 260.7,454.6C259.3,454.9 256.4,454.6 254.1,454.0C250.6,453.1 249.6,452.2 248.3,449.2C247.1,446.3 247.0,444.9 248.0,441.8C248.7,439.2 250.2,437.2 252.3,436.0C254.2,434.8 257.3,434.0 259.8,434.0C262.2,434.0 265.5,434.7 267.1,435.6C268.8,436.4 270.8,438.6 271.6,440.5C272.4,442.4 273.0,446.8 273.0,450.2C273.0,454.2 272.4,457.7 271.2,459.9C270.3,461.8 268.4,464.1 267.0,465.1C265.6,466.0 262.7,467.0 260.5,467.2zM528.2,468.0C525.6,467.9 522.0,467.3 520.2,466.5C518.4,465.7 516.5,463.9 516.0,462.4C515.4,460.9 515.1,459.1 515.4,458.3C515.7,457.6 517.2,457.0 518.8,457.0C520.4,457.0 522.5,457.9 523.5,459.0C524.5,460.1 526.5,461.0 528.0,461.0C529.4,461.0 531.1,460.5 531.8,459.8C532.5,459.1 533.0,457.8 533.0,456.7C533.0,455.6 531.7,454.4 529.5,453.4C527.6,452.6 526.0,451.3 526.0,450.6C526.0,449.8 527.6,448.3 529.5,447.1C531.7,445.8 533.0,444.3 533.0,443.0C533.0,441.3 532.4,441.0 529.2,441.0C527.2,441.0 524.6,441.7 523.6,442.5C522.5,443.3 520.8,444.0 519.8,444.0C518.9,444.0 517.6,443.1 517.0,441.9C516.1,440.3 516.2,439.3 517.4,437.5C518.5,435.8 520.3,434.9 523.5,434.4C526.1,434.1 530.1,434.0 532.6,434.3C535.1,434.5 537.9,435.5 539.0,436.5C540.0,437.4 541.1,439.3 541.5,440.7C541.9,442.6 541.5,444.2 540.0,446.2C538.0,448.9 537.9,449.3 539.5,451.0C540.4,451.9 541.3,454.3 541.6,456.1C541.9,458.5 541.5,460.5 540.0,462.8C538.9,464.6 536.8,466.5 535.4,467.0C534.0,467.6 530.8,468.0 528.2,468.0zM237.0,461.8C235.1,461.9 232.9,461.6 232.2,461.1C231.4,460.7 231.0,459.2 231.2,457.9C231.5,455.8 232.0,455.5 236.0,455.5C240.3,455.5 240.5,455.6 240.5,458.5C240.5,461.2 240.2,461.5 237.0,461.8zM554.6,462.0C552.9,462.0 550.7,461.5 549.8,460.9C548.8,460.4 548.0,459.5 548.0,459.0C548.0,458.5 548.7,457.4 549.6,456.6C550.4,455.7 552.7,455.0 554.5,455.0C556.9,455.0 558.3,455.6 559.0,457.1C559.9,458.6 559.8,459.5 558.9,460.6C558.3,461.4 556.3,462.0 554.6,462.0zM392.3,454.0C393.6,454.0 395.9,453.0 397.4,451.9C398.9,450.7 400.6,448.6 401.1,447.3C401.7,445.7 401.6,444.2 401.0,442.9C400.4,441.9 398.6,440.3 396.9,439.4C395.1,438.5 392.8,438.1 391.4,438.4C390.0,438.8 388.1,439.9 387.0,441.0C385.9,442.1 385.0,444.3 385.0,446.0C385.0,447.9 385.9,450.0 387.5,451.5C388.8,452.9 391.0,454.0 392.3,454.0zM235.6,452.0C233.3,452.0 231.0,451.7 230.7,451.3C230.3,451.0 230.0,449.6 230.0,448.3C230.0,446.2 230.4,446.0 234.9,446.0C237.7,446.0 240.2,446.5 240.5,447.0C240.8,447.6 240.8,448.9 240.5,450.0C240.0,451.6 239.0,452.0 235.6,452.0zM554.5,451.8C551.7,452.0 549.1,451.8 548.7,451.4C548.3,451.0 548.0,449.7 548.0,448.4C548.0,447.2 548.7,445.9 549.6,445.6C550.5,445.3 552.6,445.0 554.3,445.0C556.1,445.0 558.1,445.4 558.8,445.9C559.6,446.3 560.0,447.8 559.8,449.1C559.5,451.2 558.9,451.5 554.5,451.8zM261.5,450.0C262.1,450.0 263.1,449.5 263.8,448.8C264.5,448.1 265.0,446.4 265.0,444.8C265.0,443.0 264.3,441.7 262.9,440.9C261.3,440.1 260.1,440.1 258.4,440.9C256.8,441.6 256.0,442.8 256.0,444.4C256.0,445.8 256.9,447.6 258.2,448.4C259.4,449.3 260.9,450.0 261.5,450.0zM376.9,442.7C376.1,442.9 370.6,439.9 364.5,436.2C358.4,432.4 348.1,425.8 341.5,421.3C334.9,416.9 326.8,410.9 323.7,408.0C320.5,405.1 317.2,401.4 316.4,399.8C315.5,398.1 315.1,396.6 315.4,396.3C315.7,396.0 318.9,397.2 322.5,398.9C326.1,400.6 333.5,404.5 338.8,407.6C344.1,410.8 354.8,417.5 362.5,422.6C370.2,427.7 377.8,433.1 379.4,434.5C382.3,437.1 382.3,437.1 380.3,439.8C379.2,441.3 377.7,442.6 376.9,442.7zM299.3,407.0C297.2,407.0 293.9,406.2 292.0,405.2C290.1,404.3 287.9,402.4 287.2,401.0C286.3,399.3 286.0,395.0 286.2,387.3C286.5,377.4 286.8,375.8 288.6,374.0C289.8,372.8 292.6,371.4 294.9,370.9C297.7,370.3 300.5,370.3 303.1,371.0C305.9,371.8 307.7,373.1 309.0,375.3C310.7,378.0 311.0,380.4 311.0,389.3C311.0,395.3 310.5,401.0 310.0,402.1C309.4,403.1 307.6,404.7 306.0,405.5C304.4,406.3 301.4,407.0 299.3,407.0zM277.0,405.7C276.2,405.8 274.5,405.5 273.2,405.0C271.1,404.1 271.0,403.6 271.0,392.5C271.0,381.2 271.0,380.9 268.5,379.8C267.1,379.2 266.0,378.2 266.0,377.6C266.0,377.0 266.6,375.7 267.4,374.8C268.1,373.8 269.8,372.6 271.2,372.1C272.6,371.6 274.7,371.4 275.9,371.7C277.2,372.0 278.1,373.3 278.5,375.4C278.8,377.1 279.0,384.6 278.8,392.0C278.6,403.1 278.2,405.5 277.0,405.7zM505.4,404.0C498.6,404.0 494.8,403.6 493.5,402.7C492.2,401.7 491.9,400.6 492.3,398.8C492.7,397.5 496.6,392.9 501.0,388.6C505.7,384.1 509.0,380.1 509.0,379.0C509.0,377.5 508.3,377.0 506.2,377.0C504.7,377.0 501.9,378.1 500.0,379.5C498.1,380.9 496.1,382.0 495.4,382.0C494.8,382.0 493.7,381.3 493.0,380.5C492.3,379.7 492.0,378.0 492.4,376.5C492.8,375.1 494.5,373.0 496.3,371.9C498.9,370.3 500.8,370.0 506.4,370.2C512.6,370.5 513.5,370.9 516.1,373.8C517.7,375.6 519.0,378.0 519.0,379.3C519.0,380.7 516.4,383.9 511.4,388.8C507.2,392.8 503.9,396.3 504.2,396.5C504.5,396.8 507.3,397.4 510.5,397.8C514.4,398.3 516.6,399.1 517.4,400.3C518.2,401.7 518.2,402.3 517.0,403.0C516.2,403.5 511.0,404.0 505.4,404.0zM299.0,400.0C301.9,400.0 301.9,400.0 302.2,390.4C302.4,385.2 302.2,380.0 301.8,378.9C301.4,377.8 300.1,377.0 298.7,377.0C297.4,377.0 295.9,377.5 295.2,378.2C294.5,378.9 294.0,382.6 294.0,387.8C294.0,392.4 294.5,397.0 295.0,398.1C295.7,399.3 297.1,400.0 299.0,400.0zM527.8,376.5C525.5,377.1 524.9,376.7 523.5,374.0C522.0,371.1 522.0,370.7 523.5,369.0C524.3,368.1 526.9,366.4 529.2,365.4C533.2,363.6 533.2,363.6 535.2,366.0C536.2,367.3 537.0,369.3 536.8,370.4C536.6,371.5 535.1,373.2 533.5,374.1C531.9,375.1 529.3,376.2 527.8,376.5zM260.6,375.0C259.4,375.0 257.7,374.5 256.8,373.9C255.8,373.3 255.0,371.7 255.0,370.2C255.0,368.6 255.5,366.9 256.2,366.2C256.9,365.5 258.4,365.0 259.6,365.0C260.9,365.0 263.2,366.1 264.7,367.4C267.5,369.8 267.5,369.8 265.1,372.4C263.7,373.8 261.7,375.0 260.6,375.0zM327.0,360.7C325.6,360.7 323.7,360.6 322.8,360.3C321.2,359.9 321.0,358.5 321.0,348.5C321.0,342.2 320.5,335.9 320.0,334.4C319.3,332.6 319.3,331.4 320.0,330.5C320.6,329.8 322.4,329.0 324.0,328.8C325.6,328.5 327.5,328.7 328.2,329.1C329.2,329.7 329.5,333.9 329.5,345.2C329.5,360.5 329.5,360.5 327.0,360.7zM343.3,360.8C341.6,361.0 339.9,360.6 339.5,360.0C339.2,359.4 338.7,356.6 338.5,353.7C338.2,350.9 337.8,344.3 337.6,339.2C337.1,329.9 337.1,329.9 341.8,330.2C346.5,330.5 346.5,330.5 346.5,345.5C346.5,360.5 346.5,360.5 343.3,360.8zM458.5,360.8C456.8,361.0 454.9,360.5 454.2,359.8C453.4,359.0 453.0,355.1 453.0,347.9C453.0,341.8 452.6,336.8 452.0,336.5C451.4,336.2 451.0,334.9 451.0,333.6C451.0,332.4 451.5,330.9 452.2,330.2C452.9,329.5 454.8,329.0 456.6,329.0C458.3,329.0 460.3,329.6 460.9,330.4C461.7,331.3 462.0,336.4 461.8,346.1C461.5,360.5 461.5,360.5 458.5,360.8zM378.1,346.0C376.6,346.0 374.9,345.5 374.2,344.8C373.4,344.0 373.0,339.9 373.0,333.1C372.9,325.4 372.5,322.0 371.5,320.6C370.7,319.5 370.0,317.8 370.0,316.8C370.0,315.7 371.1,314.5 372.6,314.0C374.0,313.4 376.2,313.0 377.5,313.0C378.9,313.0 380.4,313.8 381.0,314.9C381.5,316.0 382.0,322.7 382.0,329.9C382.0,337.0 381.7,343.5 381.4,344.4C381.0,345.3 379.6,346.0 378.1,346.0zM315.3,328.0C314.6,328.0 313.3,326.9 312.5,325.6C311.6,324.2 311.0,321.9 311.2,320.3C311.4,318.3 312.3,317.3 314.3,316.6C316.2,315.9 317.7,315.9 318.8,316.6C319.7,317.2 320.6,318.9 320.8,320.5C321.0,322.3 320.4,324.0 318.9,325.6C317.7,326.9 316.1,328.0 315.3,328.0zM468.7,328.0C468.0,328.0 467.0,327.6 466.3,327.2C465.7,326.8 464.9,325.3 464.5,323.9C464.1,322.2 464.5,320.6 466.0,318.7C467.2,317.2 469.0,316.0 470.0,316.0C471.0,316.0 472.6,316.7 473.4,317.6C474.3,318.4 475.0,319.8 475.0,320.5C475.0,321.2 473.8,323.2 472.4,324.9C471.0,326.6 469.3,328.0 468.7,328.0zM392.0,309.0C391.0,309.0 389.4,308.0 388.6,306.8C387.7,305.6 387.0,303.6 387.0,302.4C387.0,301.2 387.6,299.7 388.4,299.1C389.2,298.4 391.1,298.0 392.6,298.2C394.6,298.4 395.6,299.3 396.3,301.3C397.0,303.4 396.8,304.7 395.6,306.5C394.7,307.9 393.1,309.0 392.0,309.0zM297.0,287.0C298.1,287.0 300.2,286.3 301.5,285.4C302.9,284.5 304.0,283.1 304.0,282.2C304.0,281.4 303.3,279.8 302.3,278.8C301.4,277.8 299.1,273.7 297.1,269.8C295.1,265.8 293.0,262.4 292.3,262.2C291.6,262.0 289.9,263.0 288.5,264.4C286.5,266.4 286.2,267.4 286.9,269.2C287.4,270.5 289.4,275.0 291.3,279.2C294.1,285.3 295.3,287.0 297.0,287.0zM491.9,285.7C492.7,285.6 493.6,284.8 494.1,284.0C494.5,283.2 496.4,278.4 498.4,273.5C500.4,268.6 502.0,263.5 502.0,262.4C502.0,261.2 501.3,259.7 500.5,259.0C499.7,258.4 498.3,258.0 497.4,258.2C496.3,258.4 494.1,262.1 491.3,268.4C488.9,273.9 487.0,279.6 487.0,281.1C487.0,282.7 487.7,284.3 488.8,284.9C489.7,285.5 491.1,285.9 491.9,285.7zM479.5,279.6C480.1,279.5 482.4,275.6 484.7,271.0C487.0,266.3 488.9,261.3 488.9,259.8C489.0,257.5 488.3,256.9 484.2,255.4C481.6,254.5 473.9,251.5 467.0,248.9C460.1,246.2 451.8,242.2 448.6,240.1C445.3,237.9 442.0,235.1 441.3,233.8C440.6,232.5 440.1,230.4 440.0,229.0C440.0,227.6 441.1,224.2 442.4,221.5C443.7,218.8 446.6,214.2 448.8,211.3C451.1,208.5 455.8,204.1 459.3,201.6C462.8,199.1 467.8,196.2 470.5,195.0C473.1,193.9 478.5,192.4 482.4,191.8C486.3,191.1 489.7,190.5 489.9,190.4C490.1,190.2 488.7,187.9 486.7,185.3C484.8,182.7 481.6,177.1 479.5,173.0C477.4,168.9 474.0,163.0 472.0,160.0C469.9,157.0 466.1,152.5 463.4,150.0C460.7,147.5 456.3,143.9 453.7,142.1C451.0,140.3 445.2,137.1 440.7,135.0C436.2,132.9 429.1,130.2 425.0,129.0C420.9,127.9 412.3,126.6 406.0,126.1C399.5,125.6 390.6,125.6 385.3,126.1C380.2,126.6 373.2,127.7 369.7,128.6C366.3,129.5 361.0,131.3 357.9,132.6C354.8,133.9 349.5,136.5 346.2,138.5C342.9,140.4 337.6,144.3 334.5,147.2C331.4,150.0 326.9,155.1 324.6,158.4C322.2,161.8 318.4,168.1 316.2,172.6C314.0,177.0 310.1,183.1 307.5,186.1C302.9,191.5 302.9,191.5 309.7,192.3C313.4,192.7 319.0,193.7 321.9,194.6C324.9,195.5 329.9,197.4 333.0,199.0C336.1,200.5 340.9,203.9 343.7,206.4C346.4,208.9 350.6,213.8 352.8,217.2C355.0,220.7 357.2,224.7 357.5,226.3C358.0,228.1 357.7,229.9 356.6,231.5C355.7,232.9 352.1,236.1 348.7,238.7C345.3,241.2 338.1,245.4 332.8,248.0C327.4,250.7 318.9,254.3 313.9,256.1C308.9,257.9 304.6,259.9 304.4,260.5C304.1,261.1 305.7,265.5 307.9,270.3C311.1,277.2 312.3,279.0 314.0,279.0C315.1,279.0 317.7,278.2 319.8,277.1C321.8,276.1 328.4,273.7 334.5,271.7C340.6,269.8 349.1,267.5 353.5,266.6C357.9,265.7 366.6,264.6 372.9,264.0C379.2,263.4 384.7,262.7 385.1,262.4C385.6,262.1 386.0,255.8 386.0,248.4C386.0,235.8 385.9,234.9 383.8,233.2C382.6,232.3 380.2,230.1 378.4,228.5C375.8,226.0 375.1,224.4 374.6,219.5C374.1,215.5 374.3,212.2 375.2,209.5C376.0,207.0 377.4,205.1 379.1,204.3C380.5,203.6 386.2,202.8 391.6,202.4C397.2,202.1 404.3,202.3 408.0,202.9C411.6,203.5 415.6,204.8 417.0,205.8C419.1,207.4 419.6,208.7 419.8,213.6C420.0,216.8 419.6,221.2 419.0,223.3C418.2,225.9 416.7,227.8 414.0,229.6C411.8,231.1 409.9,233.0 409.9,233.9C409.8,234.8 409.8,241.5 409.8,248.9C409.9,256.2 410.1,262.3 410.2,262.5C410.4,262.6 416.4,263.4 423.6,264.3C430.8,265.2 442.0,267.3 448.4,269.0C454.8,270.6 464.2,273.7 469.3,275.9C474.4,278.0 478.9,279.7 479.5,279.6zM228.1,278.0C228.7,278.0 230.4,277.2 231.8,276.1C233.3,275.1 238.2,272.2 242.8,269.7C247.3,267.2 255.6,263.0 261.3,260.4C266.9,257.8 280.3,252.5 291.0,248.5C301.7,244.5 314.1,240.1 318.5,238.7C322.9,237.3 330.1,235.2 334.5,234.0C338.9,232.9 344.2,231.5 346.3,230.9C348.4,230.4 349.8,229.5 349.5,228.9C349.1,228.4 346.7,228.2 343.7,228.6C340.8,228.9 334.4,230.0 329.4,231.0C324.3,232.1 316.3,234.0 311.4,235.4C306.6,236.8 301.5,238.0 300.1,238.0C297.7,238.0 297.7,238.0 299.5,236.0C300.5,234.9 303.6,232.6 306.4,230.9C311.5,227.9 311.5,227.9 306.5,228.4C303.8,228.7 299.2,229.2 296.5,229.6C291.5,230.3 291.5,230.3 293.7,227.8C295.0,226.5 299.1,223.9 303.0,222.0C307.9,219.6 309.6,218.4 308.6,217.8C307.9,217.4 303.1,217.7 298.0,218.6C293.0,219.5 288.6,219.9 288.3,219.7C288.0,219.4 288.1,218.7 288.4,218.1C288.8,217.5 292.2,215.2 296.0,213.0C299.9,210.7 303.0,208.7 303.0,208.4C303.0,208.1 300.9,208.1 298.2,208.4C295.6,208.7 291.1,209.2 288.2,209.6C284.9,210.0 283.0,209.8 283.0,209.2C283.0,208.6 285.5,206.6 288.5,204.7C291.5,202.8 296.7,200.5 300.0,199.6C303.3,198.6 305.8,197.5 305.5,197.1C305.3,196.6 303.6,196.0 301.8,195.8C300.0,195.5 295.8,195.9 292.5,196.7C289.2,197.5 283.2,199.7 279.2,201.6C275.1,203.6 267.5,208.1 262.2,211.7C256.8,215.3 250.2,220.2 247.3,222.6C244.5,225.1 239.9,229.8 237.2,233.3C234.5,236.7 231.1,241.8 229.8,244.5C228.4,247.2 226.9,251.0 226.5,252.8C226.2,254.5 226.1,256.0 226.4,256.0C226.7,256.0 228.4,255.1 230.2,254.0C232.0,252.9 234.1,252.0 234.8,252.0C235.8,252.0 235.8,252.5 235.0,254.0C234.4,255.1 232.1,256.9 230.0,258.0C227.4,259.3 226.0,260.7 226.0,261.9C226.0,263.6 226.4,263.7 229.6,262.9C231.5,262.3 234.2,262.0 235.6,262.2C238.0,262.5 237.9,262.7 232.6,269.0C229.5,272.6 227.0,276.1 227.0,276.8C227.0,277.4 227.5,278.0 228.1,278.0zM574.3,277.0C574.8,277.0 575.0,276.2 574.8,275.3C574.6,274.4 571.4,271.5 567.7,269.0C563.9,266.4 554.2,261.3 546.2,257.5C538.1,253.8 527.8,248.7 523.2,246.2C518.7,243.7 515.0,241.3 515.0,240.8C515.0,240.4 516.5,240.0 518.2,240.0C520.0,240.0 523.5,240.5 526.0,241.1C528.5,241.6 531.4,242.3 532.5,242.7C534.3,243.2 534.4,243.1 533.0,241.5C532.2,240.5 527.3,237.7 522.3,235.3C517.2,232.8 512.8,230.5 512.5,230.0C512.2,229.6 512.8,228.9 513.7,228.6C514.6,228.2 518.9,228.4 523.3,229.0C527.6,229.6 531.4,229.9 531.7,229.7C531.9,229.4 529.9,227.9 527.2,226.2C524.4,224.5 519.9,222.1 517.1,220.9C514.2,219.7 512.1,218.2 512.3,217.6C512.5,217.0 515.7,216.3 519.3,216.0C526.0,215.5 526.0,215.5 515.4,210.1C508.0,206.4 505.2,204.4 505.9,203.7C506.6,203.0 508.7,203.0 512.7,203.9C515.9,204.6 523.5,207.5 529.6,210.5C535.6,213.4 544.3,218.6 548.9,222.0C553.5,225.4 557.4,228.0 557.6,227.7C557.8,227.5 556.4,225.3 554.4,222.7C552.4,220.2 548.5,216.3 545.7,214.2C542.8,212.0 538.5,209.1 536.0,207.7C533.5,206.3 527.0,203.3 521.6,201.0C516.2,198.7 508.7,196.2 505.1,195.4C501.5,194.7 496.4,194.0 493.8,194.0C491.2,194.0 485.8,195.2 481.8,196.6C477.8,198.1 472.7,200.1 470.5,201.2C468.3,202.3 464.3,204.9 461.7,206.9C459.0,208.9 454.4,213.9 451.4,218.0C448.4,222.1 446.0,226.0 446.0,226.7C446.0,227.4 447.0,228.2 448.2,228.4C449.5,228.6 453.6,229.3 457.5,230.0C461.4,230.6 468.6,232.3 473.5,233.6C478.4,235.0 488.0,238.2 494.7,240.6C501.4,243.0 513.1,247.6 520.7,250.9C528.3,254.1 539.7,259.2 546.0,262.2C552.3,265.3 561.1,269.8 565.5,272.4C569.9,274.9 573.9,277.0 574.3,277.0zM396.8,260.4C397.6,260.2 398.6,260.0 399.1,260.0C399.6,260.0 400.0,254.2 400.0,247.0C400.0,234.0 400.0,234.0 397.5,233.4C396.1,233.1 394.3,233.0 393.5,233.4C392.3,233.8 392.0,236.3 392.0,246.9C392.0,258.4 392.2,259.9 393.8,260.3C394.7,260.6 396.1,260.6 396.8,260.4zM390.1,224.0C394.7,224.0 397.1,223.6 398.0,222.5C398.6,221.7 398.9,220.7 398.6,220.2C398.3,219.7 396.7,218.7 395.0,218.0C393.3,217.3 392.1,216.2 392.3,215.6C392.5,215.0 395.8,213.9 399.5,213.3C403.3,212.6 406.8,211.6 407.3,211.1C407.9,210.5 407.3,209.7 406.0,209.0C404.7,208.3 399.1,207.5 393.4,207.2C385.5,206.8 382.7,207.0 381.4,208.1C380.1,209.2 379.9,210.6 380.4,215.9C380.7,219.5 381.5,222.7 382.2,223.2C382.9,223.6 386.5,224.0 390.1,224.0zM275.1,198.0C276.1,198.0 278.1,196.9 279.6,195.7C281.2,194.3 282.0,192.8 281.6,192.2C281.2,191.5 279.6,191.0 278.0,191.0C276.5,191.0 274.5,191.3 273.6,191.6C272.7,191.9 272.0,193.2 272.0,194.4C272.0,195.7 272.3,197.0 272.7,197.3C273.0,197.7 274.1,198.0 275.1,198.0zM520.6,194.0C523.0,194.0 525.2,193.5 525.5,192.9C525.9,192.4 525.4,190.9 524.3,189.8C523.3,188.7 521.6,187.4 520.5,187.0C519.4,186.6 517.7,186.6 516.8,187.2C515.8,187.7 515.0,189.1 515.0,190.4C515.0,191.6 515.3,193.0 515.7,193.3C516.0,193.7 518.3,194.0 520.6,194.0zM269.4,190.0C270.1,190.0 272.5,188.6 274.8,186.9C277.1,185.2 279.0,183.2 279.0,182.5C279.0,181.8 277.8,180.8 276.2,180.3C274.7,179.8 272.5,179.6 271.3,179.9C270.0,180.2 268.1,181.3 267.0,182.2C265.9,183.2 265.0,184.6 265.0,185.4C265.0,186.2 265.7,187.6 266.6,188.4C267.4,189.3 268.7,190.0 269.4,190.0zM524.4,185.7C526.5,185.4 528.7,184.7 529.3,184.1C530.1,183.3 530.2,182.5 529.4,181.2C528.8,180.3 526.9,179.1 525.1,178.6C522.6,177.9 521.6,178.1 520.0,179.5C518.9,180.5 518.0,181.8 518.0,182.5C518.0,183.1 518.6,184.2 519.2,184.9C520.0,185.7 521.9,186.0 524.4,185.7z" />

</svg>